<svg xmlns="http://www.w3.org/2000/svg" viewBox="0 0 34 34">
  <defs>
    <style>
      .cls-1 {
        fill: #fff;
        stroke: #707070;
      }

      .cls-2 {
        stroke: none;
      }

      .cls-3 {
        fill: none;
      }
    </style>
  </defs>
  <g id="Phone" transform="translate(-452 -1236)">
    <g id="Ellipse_1" data-name="Ellipse 1" class="cls-1" transform="translate(452 1236)">
      <circle class="cls-2" cx="17" cy="17" r="17"/>
      <circle class="cls-3" cx="17" cy="17" r="16.5"/>
    </g>
    <g id="phone-call" transform="translate(461 1245)">
      <path id="Path_272" data-name="Path 272" d="M13.136,16.345a7.02,7.02,0,0,1-2.4-.511,18.04,18.04,0,0,1-6.066-4.154A18.053,18.053,0,0,1,.51,5.612c-.679-1.8-.681-3.278,0-3.954.1-.1.2-.2.3-.31A3.2,3.2,0,0,1,3.044,0,2.68,2.68,0,0,1,4.931,1.21C6.8,3.533,5.957,4.361,4.982,5.321l-.172.17c-.159.159-.461.9,2.342,3.7a15.541,15.541,0,0,0,2.318,1.99c.393.255,1.095.641,1.383.353l.173-.175c.959-.973,1.787-1.812,4.108.054A2.678,2.678,0,0,1,16.343,13.3a3.186,3.186,0,0,1-1.348,2.24c-.107.1-.212.2-.309.3A2.141,2.141,0,0,1,13.136,16.345ZM2.978.55c-.657,0-1.25.625-1.775,1.177C1.1,1.838,1,1.946.895,2.046c-.5.5-.453,1.827.13,3.372a17.5,17.5,0,0,0,4.03,5.873,17.488,17.488,0,0,0,5.872,4.028c1.545.584,2.869.633,3.372.13.1-.1.208-.2.319-.308.565-.537,1.205-1.145,1.177-1.819a2.223,2.223,0,0,0-1-1.482c-1.935-1.556-2.476-1.007-3.373-.1l-.176.178c-.429.429-1.125.334-2.071-.28A16.052,16.052,0,0,1,6.764,9.579C4.438,7.254,3.694,5.831,4.422,5.1L4.6,4.928c.912-.9,1.462-1.439-.094-3.374a2.23,2.23,0,0,0-1.482-1Z" transform="translate(0 0)"/>
    </g>
  </g>
</svg>
