<svg xmlns="http://www.w3.org/2000/svg" width="216.607" height="20" viewBox="0 0 216.607 20">
  <g id="Mall_Logo" data-name="Mall Logo" transform="translate(-253.032 -283.848)">
    <path id="Path_397" data-name="Path 397" d="M253.032,285.466h6.137v18.257h1.32V285.466h6.136v-1.3H253.032Z" transform="translate(0 -0.096)"/>
    <g id="Group_590" data-name="Group 590" transform="translate(274.71 284.07)">
      <path id="Path_398" data-name="Path 398" d="M285.455,292.781v-7.286h6.216a3.6,3.6,0,0,1,3.672,3.612,3.652,3.652,0,0,1-3.529,3.674Zm0,1.326h6.352a4.07,4.07,0,0,1,4.095,4.132,4.129,4.129,0,0,1-4.2,4.151h-6.251Zm8.637-.7a4.98,4.98,0,0,0,2.585-4.39,4.862,4.862,0,0,0-5.187-4.85h-7.349v19.557h7.377a5.428,5.428,0,0,0,4.846-8.382,5.115,5.115,0,0,0-2.272-1.935" transform="translate(-284.141 -284.167)"/>
    </g>
    <rect id="Rectangle_601" data-name="Rectangle 601" width="1.32" height="19.556" transform="translate(297.36 284.07)"/>
    <path id="Path_399" data-name="Path 399" d="M331.639,284.166h-1.322v19.556h10.514v-1.3h-9.193Z" transform="translate(-22.567 -0.097)"/>
    <rect id="Rectangle_602" data-name="Rectangle 602" width="1.322" height="19.556" transform="translate(326.6 284.07)"/>
    <rect id="Rectangle_603" data-name="Rectangle 603" width="1.322" height="19.556" transform="translate(358.625 284.07)"/>
    <g id="Group_591" data-name="Group 591" transform="translate(337.032 283.848)">
      <path id="Path_400" data-name="Path 400" d="M378.607,292.948c-2.688-.6-5.227-1.159-5.227-3.861,0-2.385,1.935-3.925,4.932-3.925,2.9,0,4.78,1.658,4.78,4.225v.222h1.315v-.222c0-3.312-2.444-5.539-6.081-5.539-3.807,0-6.268,2.067-6.268,5.266,0,3.737,3.327,4.475,6.265,5.126,2.812.635,5.24,1.181,5.24,4.016,0,2.512-2.094,4.267-5.095,4.267-3.332,0-5.484-1.859-5.484-4.737v-.224h-1.334v.224c0,3.626,2.743,6.063,6.825,6.063,3.786,0,6.43-2.3,6.43-5.6,0-3.872-3.344-4.631-6.3-5.3" transform="translate(-371.649 -283.848)"/>
    </g>
    <path id="Path_401" data-name="Path 401" d="M453.788,284.153h-2.681l-5.493,12.662-5.4-12.522-.061-.14h-2.668l-3.393,19.5-.014.077h3.483l2.117-12.109,4.936,11.344h2.017l4.949-11.353,2.065,11.926.034.192h3.481l-3.34-19.381Z" transform="translate(-52.73 -0.093)"/>
    <path id="Path_402" data-name="Path 402" d="M489.612,295.4H485.1l2.226-5.34Zm-1.108-11.25h-2.417l-8.142,19.482-.039.092h3.715l2.052-4.889h7.4l2.072,4.849.017.04H496.9l-8.337-19.433Z" transform="translate(-65.551 -0.093)"/>
    <path id="Path_403" data-name="Path 403" d="M519.066,284.153h-3.433v19.575h11.554v-3.447h-8.121Z" transform="translate(-76.358 -0.093)"/>
    <path id="Path_404" data-name="Path 404" d="M546.058,300.281V284.153h-3.432v19.575h11.554v-3.447Z" transform="translate(-84.542 -0.093)"/>
  </g>
</svg>
