<svg xmlns="http://www.w3.org/2000/svg" viewBox="0 0 155.8 17.191">
  <g id="TM_LOGO" transform="translate(0 0.021)">
    <path id="Path_361" data-name="Path 361" d="M8.3,3.85V17.02H4.14V3.85H0V.15H12.44v3.7Z"/>
    <path id="Path_362" data-name="Path 362" d="M22.81,10.34H20v3h2.79a1.39,1.39,0,0,0,1.52-1.49,1.38,1.38,0,0,0-1.52-1.47M22.58,3.9H20V6.61h2.58a1.32,1.32,0,0,0,1.5-1.37,1.32,1.32,0,0,0-1.5-1.38M23.21,17H15.86V.15h7c3.51,0,5.38,2,5.38,4.88a4.08,4.08,0,0,1-1.85,3.35A3.92,3.92,0,0,1,28.47,12c0,3.23-2.25,5-5.26,5"/>
    <rect id="Rectangle_511" data-name="Rectangle 511" width="4.14" height="16.87" transform="translate(32.27 0.15)"/>
    <path id="Path_363" data-name="Path 363" d="M40.78,17.02V.15h4.14V13.32h7.09v3.7Z"/>
    <rect id="Rectangle_512" data-name="Rectangle 512" width="4.14" height="16.87" transform="translate(55.35 0.15)"/>
    <path id="Path_364" data-name="Path 364" d="M68.65,17.17c-2.59,0-4.7-.48-6.4-2.23l2.65-2.65a5.51,5.51,0,0,0,3.77,1.18c1.64,0,2.42-.55,2.42-1.51a1.37,1.37,0,0,0-.34-1,1.87,1.87,0,0,0-1.11-.46l-2-.29a5.68,5.68,0,0,1-3.39-1.49,4.67,4.67,0,0,1-1.16-3.4C63.05,2.25,65.38,0,69.22,0a7.51,7.51,0,0,1,5.69,2L72.3,4.63a4.17,4.17,0,0,0-3.2-1c-1.45,0-2,.83-2,1.57a1.08,1.08,0,0,0,.33.78,1.86,1.86,0,0,0,1.16.5l2,.28a5.75,5.75,0,0,1,3.32,1.4,5,5,0,0,1,1.25,3.69c0,3.45-3,5.32-6.52,5.32"/>
    <rect id="Rectangle_513" data-name="Rectangle 513" width="4.15" height="16.87" transform="translate(78.81 0.15)"/>
    <path id="Path_365" data-name="Path 365" d="M105.1,17.02V8.94l-2.39,4.17h-2.65l-2.4-4.17v8.08H93.52V.15h4.07l3.8,7.44L105.18.15h4.08V17.02Z"/>
    <path id="Path_366" data-name="Path 366" d="M119.73,6.54,118.21,11h2.94ZM123,17l-.79-2.51h-5.18L116.22,17h-4.34L118,.15h3.2L127.36,17Z"/>
    <path id="Path_367" data-name="Path 367" d="M130,17.02V.15h4.14V13.32h7.08v3.7Z"/>
    <path id="Path_368" data-name="Path 368" d="M144.57,17.02V.15h4.14V13.32h7.09v3.7Z"/>
  </g>
</svg>
