<svg id="twitter_1_" data-name="twitter (1)" xmlns="http://www.w3.org/2000/svg" viewBox="0 0 20.045 16.411">
  <path id="XMLID_827_" d="M19.588,29.991a7.6,7.6,0,0,1-.969.353,4.285,4.285,0,0,0,.873-1.534.323.323,0,0,0-.473-.377,7.629,7.629,0,0,1-2.255.891A4.3,4.3,0,0,0,9.448,32.4a4.389,4.389,0,0,0,.035.556,11.017,11.017,0,0,1-7.561-4.011.323.323,0,0,0-.53.042,4.309,4.309,0,0,0,.441,4.953,3.645,3.645,0,0,1-.576-.257.323.323,0,0,0-.48.275c0,.019,0,.038,0,.057a4.318,4.318,0,0,0,2.106,3.7c-.109-.011-.219-.027-.327-.048a.323.323,0,0,0-.369.416A4.3,4.3,0,0,0,5.34,40.968,7.613,7.613,0,0,1,1.27,42.129a7.786,7.786,0,0,1-.911-.053.323.323,0,0,0-.212.593,11.6,11.6,0,0,0,6.275,1.839,11.164,11.164,0,0,0,8.649-3.8,12.041,12.041,0,0,0,3-7.848c0-.118,0-.237-.005-.356a8.365,8.365,0,0,0,1.925-2.039.323.323,0,0,0-.4-.475Z" transform="translate(0.002 -28.097)"/>
</svg>
