<svg xmlns="http://www.w3.org/2000/svg" viewBox="0 0 10.974 10.974">
  <g id="user" transform="translate(1 0)">
    <g id="Group_520" data-name="Group 520" transform="translate(-1 0)">
      <path id="Path_387" data-name="Path 387" d="M9.366,7.094A5.466,5.466,0,0,0,7.281,5.786a3.172,3.172,0,1,0-3.589,0A5.5,5.5,0,0,0,0,10.974H.857a4.629,4.629,0,1,1,9.259,0h.857A5.451,5.451,0,0,0,9.366,7.094ZM5.487,5.487A2.315,2.315,0,1,1,7.8,3.172,2.317,2.317,0,0,1,5.487,5.487Z" transform="translate(0)"/>
    </g>
  </g>
</svg>
