<svg xmlns="http://www.w3.org/2000/svg" viewBox="0 0 34 34">
  <defs>
    <style>
      .cls-1 {
        fill: #fff;
        stroke: #707070;
      }

      .cls-2 {
        stroke: none;
      }

      .cls-3 {
        fill: none;
      }
    </style>
  </defs>
  <g id="Web" transform="translate(-685 -1236)">
    <g id="Ellipse_1" data-name="Ellipse 1" class="cls-1" transform="translate(685 1236)">
      <circle class="cls-2" cx="17" cy="17" r="17"/>
      <circle class="cls-3" cx="17" cy="17" r="16.5"/>
    </g>
    <g id="Group_215" data-name="Group 215" transform="translate(689.999 1241.399)">
      <g id="Group_214" data-name="Group 214">
        <path id="Path_271" data-name="Path 271" d="M87.508,132.93a.368.368,0,0,0,.059.044,7.964,7.964,0,0,0,11.606,0,.375.375,0,0,0,.056-.04.39.39,0,0,0,.034-.058,7.952,7.952,0,0,0,0-10.779h0a.39.39,0,0,0-.034-.058.358.358,0,0,0-.06-.045,7.964,7.964,0,0,0-11.6,0,.356.356,0,0,0-.06.045.391.391,0,0,0-.034.058,7.952,7.952,0,0,0,0,10.779A.386.386,0,0,0,87.508,132.93Zm8.041,1.411a7.351,7.351,0,0,0,1.362-2.52h0a7.323,7.323,0,0,1,1.413.87A7.2,7.2,0,0,1,95.549,134.341Zm3.327-2.233a8.112,8.112,0,0,0-1.738-1.066,14.26,14.26,0,0,0,.419-3.16h2.99A7.16,7.16,0,0,1,98.876,132.108Zm1.67-5.026h-2.99a14.265,14.265,0,0,0-.419-3.16,8.113,8.113,0,0,0,1.738-1.065A7.16,7.16,0,0,1,100.546,127.082Zm-2.222-4.808a7.321,7.321,0,0,1-1.413.87,7.351,7.351,0,0,0-1.362-2.521A7.2,7.2,0,0,1,98.324,122.274Zm-4.557-1.936c.98.257,1.848,1.436,2.394,3.1a8.493,8.493,0,0,1-2.394.456Zm0,4.36a9.25,9.25,0,0,0,2.614-.48,13.543,13.543,0,0,1,.376,2.864h-2.99Zm0,3.184h2.99a13.542,13.542,0,0,1-.376,2.863,9.25,9.25,0,0,0-2.614-.479Zm0,3.184a8.493,8.493,0,0,1,2.394.456c-.546,1.669-1.414,2.848-2.394,3.1Zm-5.357,1.622a7.323,7.323,0,0,1,1.413-.867h0a7.351,7.351,0,0,0,1.362,2.52A7.2,7.2,0,0,1,88.41,132.688Zm4.557,1.938c-.98-.257-1.848-1.436-2.394-3.1a8.493,8.493,0,0,1,2.394-.456Zm0-4.36a9.251,9.251,0,0,0-2.614.48,13.543,13.543,0,0,1-.376-2.864h2.99Zm0-3.184h-2.99a13.542,13.542,0,0,1,.376-2.863,9.25,9.25,0,0,0,2.614.479Zm0-6.744v3.56a8.494,8.494,0,0,1-2.394-.456C91.119,121.773,91.986,120.595,92.967,120.338Zm-1.782.283a7.35,7.35,0,0,0-1.362,2.522h0a7.321,7.321,0,0,1-1.413-.87A7.2,7.2,0,0,1,91.185,120.621Zm-3.327,2.235a8.112,8.112,0,0,0,1.738,1.066,14.26,14.26,0,0,0-.419,3.16h-2.99A7.16,7.16,0,0,1,87.858,122.856Zm1.32,5.026a14.265,14.265,0,0,0,.419,3.16,8.113,8.113,0,0,0-1.738,1.065,7.16,7.16,0,0,1-1.67-4.225h2.99Z" transform="translate(-81.367 -115.882)"/>
      </g>
    </g>
  </g>
</svg>
