<svg id="youtube" xmlns="http://www.w3.org/2000/svg" viewBox="0 0 20.045 14.106">
  <path id="XMLID_823_" d="M19.263,47.128c-.724-.86-2.059-1.211-4.611-1.211H5.392c-2.61,0-3.968.373-4.689,1.289C0,48.1,0,49.415,0,51.235v3.47c0,3.527.834,5.318,5.392,5.318h9.261c2.212,0,3.438-.31,4.232-1.069.813-.778,1.16-2.049,1.16-4.25v-3.47C20.045,49.315,19.99,47.992,19.263,47.128Zm-6.395,6.322-4.205,2.2a.647.647,0,0,1-.946-.573V50.693a.647.647,0,0,1,.945-.574L12.867,52.3a.647.647,0,0,1,0,1.147Z" transform="translate(0 -45.917)"/>
</svg>
