<svg id="facebook" xmlns="http://www.w3.org/2000/svg" viewBox="0 0 10.126 20.045">
  <path id="XMLID_835_" d="M77.026,10.676h2.2v9.046a.323.323,0,0,0,.323.323h3.725a.323.323,0,0,0,.323-.323v-9h2.526a.323.323,0,0,0,.321-.286l.384-3.33a.323.323,0,0,0-.321-.36H83.6V4.654c0-.629.339-.948,1.007-.948h1.9a.323.323,0,0,0,.323-.323V.326A.323.323,0,0,0,86.505,0H83.884c-.018,0-.06,0-.12,0a5.024,5.024,0,0,0-3.285,1.238A3.445,3.445,0,0,0,79.333,4.3V6.742H77.026a.323.323,0,0,0-.323.323v3.288A.323.323,0,0,0,77.026,10.676Z" transform="translate(-76.703)"/>
</svg>
