<svg id="pinterest" xmlns="http://www.w3.org/2000/svg" viewBox="0 0 15.757 20.048">
  <path id="XMLID_799_" d="M46.894,2.054A7.688,7.688,0,0,0,41.517,0a8.453,8.453,0,0,0-6.234,2.4,7.1,7.1,0,0,0-2.1,4.923c0,2.232.933,3.944,2.5,4.582a.827.827,0,0,0,.314.065.7.7,0,0,0,.682-.562c.053-.2.175-.688.228-.9a.845.845,0,0,0-.226-.914,2.914,2.914,0,0,1-.663-1.991,5.011,5.011,0,0,1,5.2-5.044c2.678,0,4.341,1.522,4.341,3.972a8.253,8.253,0,0,1-.938,4.032,2.773,2.773,0,0,1-2.294,1.605,1.521,1.521,0,0,1-1.209-.553,1.391,1.391,0,0,1-.244-1.208c.119-.505.282-1.032.44-1.542a9.541,9.541,0,0,0,.559-2.511A1.823,1.823,0,0,0,40.028,4.35c-1.395,0-2.487,1.416-2.487,3.225a4.8,4.8,0,0,0,.342,1.8c-.176.744-1.22,5.17-1.418,6-.115.487-.8,4.335.337,4.642,1.283.345,2.43-3.4,2.546-3.826.095-.344.426-1.647.628-2.447a3.879,3.879,0,0,0,2.587,1A5.77,5.77,0,0,0,47.2,12.435a9.3,9.3,0,0,0,1.741-5.689A6.56,6.56,0,0,0,46.894,2.054Z" transform="translate(-33.181)"/>
</svg>
