<svg id="TB_mall_logo_Black" data-name="TB mall logo_Black" xmlns="http://www.w3.org/2000/svg" viewBox="0 0 52.042 52.042">
  <defs>
    <style>
      .cls-1 {
        fill: #1e1e1e;
      }
    </style>
  </defs>
  <path id="Path_144" data-name="Path 144" class="cls-1" d="M280.81,313.161h.811l-.393-1.241Z" transform="translate(-244.275 -271.337)"/>
  <path id="Path_145" data-name="Path 145" class="cls-1" d="M74.022,306.639a.363.363,0,0,0-.412-.379H72.9v.759h.709A.364.364,0,0,0,74.022,306.639Z" transform="translate(-63.415 -266.414)"/>
  <path id="Path_146" data-name="Path 146" class="cls-1" d="M73.668,319.987H72.9v.816h.768a.39.39,0,0,0,.416-.416.379.379,0,0,0-.416-.4Z" transform="translate(-63.415 -278.353)"/>
  <path id="Path_147" data-name="Path 147" class="cls-1" d="M0,0V52.042H52.042V0ZM7.4,39.841H6.257V43.47H5.112V39.841H3.97V38.822H7.4Zm2.966,3.629H8.341V38.821h1.926a1.3,1.3,0,0,1,1.482,1.344,1.127,1.127,0,0,1-.509.922,1.079,1.079,0,0,1,.574,1.01,1.322,1.322,0,0,1-1.449,1.373Zm3.635,0H12.858V38.821H14Zm4.294,0H15.2V38.821h1.141v3.63H18.3Zm.289-9.162H10.739V15.978H4.055V8.245H16.6l7.145,7.734H18.587Zm1.773,9.162H19.215V38.821h1.141Zm2.523.042a2.253,2.253,0,0,1-1.764-.615l.732-.73a1.518,1.518,0,0,0,1.041.325c.453,0,.669-.152.669-.418a.39.39,0,0,0-.092-.273.52.52,0,0,0-.307-.13l-.563-.078a1.572,1.572,0,0,1-.933-.411,1.283,1.283,0,0,1-.32-.934,1.505,1.505,0,0,1,1.7-1.469,2.062,2.062,0,0,1,1.568.556l-.718.719a1.152,1.152,0,0,0-.883-.275c-.4,0-.561.229-.561.431a.3.3,0,0,0,.09.215.51.51,0,0,0,.321.139l.563.078a1.532,1.532,0,0,1,.911.39,1.361,1.361,0,0,1,.345,1.017c0,.946-.814,1.462-1.793,1.462Zm3.942-.042H25.678V38.821h1.144Zm7.243,0H32.921V41.244l-.654,1.148h-.733l-.661-1.148V43.47H29.732V38.821h1.123l1.041,2.05,1.041-2.05h1.123Zm3.793,0-.216-.691H36.21l-.229.691h-1.2l1.691-4.649h.883l1.691,4.649ZM36.078,27.677l-3.242-3.513v10.14H25.272V15.978L18.129,8.245h14.7l3.242,3.513,3.244-3.513h7.567V34.308H39.322V24.17Zm6.8,15.792H39.781V38.821h1.142v3.63h1.952Zm4.016,0H43.8V38.821h1.142v3.63H46.89Z"/>
</svg>
